<svg width="267" height="268" viewBox="0 0 267 268" fill="none" xmlns="http://www.w3.org/2000/svg">
<path d="M91.8477 8.60795L93.1588 8.17587L94.3576 7.80009C96.2306 7.23646 97.9913 6.71041 99.8456 6.22193C123.971 -0.153729 149.406 0.472752 173.19 8.02846C196.975 15.5842 218.132 29.7585 234.2 48.9025C250.268 68.0466 260.586 91.3735 263.955 116.169C267.324 140.965 263.604 166.211 253.229 188.97C253.132 189.2 253.126 189.458 253.213 189.693C253.3 189.927 253.474 190.118 253.697 190.228C253.924 190.33 254.181 190.338 254.412 190.25C254.644 190.162 254.831 189.985 254.934 189.759C265.437 166.674 269.194 141.074 265.769 115.933C262.344 90.7922 251.877 67.142 235.585 47.7304C219.292 28.3189 197.843 13.9428 173.729 6.27262C149.615 -1.3976 123.826 -2.04711 99.3586 4.39953C97.4855 4.90679 95.6125 5.43282 93.7394 6.01524L92.522 6.39102L91.1921 6.8419C91.0627 6.86951 90.9405 6.92432 90.8337 7.00273C90.7269 7.08113 90.6379 7.18138 90.5726 7.2968C90.5072 7.41222 90.467 7.54019 90.4545 7.67235C90.4421 7.8045 90.4577 7.93783 90.5004 8.06349C90.543 8.18915 90.6117 8.30434 90.702 8.40143C90.7922 8.49851 90.902 8.57531 91.0239 8.62675C91.146 8.6782 91.2774 8.70309 91.4097 8.69986C91.542 8.69662 91.6721 8.66529 91.7915 8.60795H91.8477Z" fill="url(#paint0_linear_4083_8864)"/>
<path d="M208.763 242.345C182.786 260.432 151.189 268.539 119.744 265.185C88.2998 261.831 59.1082 247.24 37.5039 224.079C15.8995 200.918 3.32493 170.733 2.0778 139.039C0.830678 107.345 10.9943 76.2598 30.7115 51.4626C32.1912 49.5839 33.7459 47.7051 35.3379 45.9767C35.5044 45.7898 35.59 45.5443 35.5759 45.2941C35.5619 45.044 35.4493 44.8096 35.263 44.6427C35.0767 44.4758 34.832 44.3899 34.5826 44.404C34.3332 44.4181 34.0996 44.531 33.9332 44.7179C32.3223 46.5966 30.7677 48.4754 29.2506 50.3542C9.20052 75.5045 -1.14749 107.057 0.101128 139.235C1.34975 171.414 14.1115 202.064 36.0497 225.575C57.988 249.086 87.6349 263.885 119.562 267.261C151.49 270.638 183.562 262.366 209.906 243.961C210.006 243.892 210.092 243.803 210.158 243.7C210.224 243.596 210.269 243.481 210.29 243.36C210.311 243.24 210.307 243.116 210.28 242.996C210.253 242.877 210.202 242.764 210.13 242.665C210.067 242.548 209.98 242.445 209.875 242.364C209.769 242.283 209.648 242.226 209.519 242.196C209.389 242.166 209.255 242.163 209.125 242.189C208.995 242.215 208.871 242.268 208.763 242.345Z" fill="url(#paint1_linear_4083_8864)"/>
<path d="M60.3993 30.2701C64.4026 30.2701 67.648 27.0149 67.648 22.9993C67.648 18.9837 64.4026 15.7285 60.3993 15.7285C56.3959 15.7285 53.1506 18.9837 53.1506 22.9993C53.1506 27.0149 56.3959 30.2701 60.3993 30.2701Z" fill="url(#paint2_linear_4083_8864)"/>
<path d="M82.4825 16.0103C85.1307 16.0103 87.2775 13.8569 87.2775 11.2007C87.2775 8.54436 85.1307 6.39101 82.4825 6.39101C79.8343 6.39101 77.6875 8.54436 77.6875 11.2007C77.6875 13.8569 79.8343 16.0103 82.4825 16.0103Z" fill="url(#paint3_linear_4083_8864)"/>
<path d="M41.1444 43.2524C43.7926 43.2524 45.9394 41.0991 45.9394 38.4428C45.9394 35.7865 43.7926 33.6331 41.1444 33.6331C38.4962 33.6331 36.3494 35.7865 36.3494 38.4428C36.3494 41.0991 38.4962 43.2524 41.1444 43.2524Z" fill="url(#paint4_linear_4083_8864)"/>
<path d="M242.366 217.076C241.921 215.568 241.002 214.245 239.747 213.303C238.491 212.362 236.965 211.853 235.398 211.853C234.714 211.854 234.033 211.949 233.375 212.135C231.693 212.619 230.242 213.697 229.291 215.169C228.339 216.642 227.95 218.411 228.197 220.148C228.443 221.886 229.308 223.475 230.632 224.623C231.955 225.771 233.648 226.401 235.398 226.395C236.089 226.395 236.777 226.293 237.439 226.094C238.355 225.829 239.208 225.384 239.952 224.787C240.695 224.189 241.314 223.45 241.771 222.612C242.229 221.774 242.517 220.854 242.619 219.904C242.721 218.953 242.635 217.993 242.366 217.076Z" fill="url(#paint5_linear_4083_8864)"/>
<path d="M222.118 235.3C221.852 234.392 221.323 233.584 220.599 232.977C219.875 232.37 218.988 231.991 218.05 231.889C217.112 231.787 216.165 231.966 215.328 232.404C214.492 232.841 213.803 233.517 213.349 234.347C212.895 235.177 212.696 236.123 212.777 237.066C212.859 238.008 213.217 238.906 213.806 239.645C214.396 240.384 215.19 240.931 216.089 241.218C216.989 241.505 217.952 241.518 218.859 241.256C219.464 241.081 220.028 240.788 220.52 240.393C221.011 239.999 221.42 239.511 221.723 238.958C222.026 238.404 222.217 237.796 222.284 237.168C222.352 236.541 222.296 235.906 222.118 235.3Z" fill="url(#paint6_linear_4083_8864)"/>
<path d="M254.184 197.518C253.924 196.592 253.395 195.764 252.665 195.14C251.934 194.517 251.035 194.125 250.081 194.016C249.128 193.907 248.164 194.085 247.312 194.527C246.46 194.969 245.758 195.656 245.297 196.5C244.835 197.343 244.634 198.306 244.72 199.264C244.805 200.223 245.173 201.134 245.777 201.882C246.381 202.63 247.193 203.181 248.11 203.464C249.026 203.748 250.007 203.751 250.925 203.474C251.53 203.299 252.095 203.006 252.586 202.611C253.078 202.217 253.487 201.729 253.789 201.176C254.092 200.622 254.283 200.014 254.351 199.386C254.419 198.759 254.362 198.124 254.184 197.518Z" fill="url(#paint7_linear_4083_8864)"/>
<defs>
<linearGradient id="paint0_linear_4083_8864" x1="133.5" y1="0" x2="133.5" y2="268" gradientUnits="userSpaceOnUse">
<stop stop-color="#83D4ED"/>
<stop offset="1" stop-color="#00BBD3"/>
</linearGradient>
<linearGradient id="paint1_linear_4083_8864" x1="133.5" y1="0" x2="133.5" y2="268" gradientUnits="userSpaceOnUse">
<stop stop-color="#83D4ED"/>
<stop offset="1" stop-color="#00BBD3"/>
</linearGradient>
<linearGradient id="paint2_linear_4083_8864" x1="133.5" y1="0" x2="133.5" y2="268" gradientUnits="userSpaceOnUse">
<stop stop-color="#83D4ED"/>
<stop offset="1" stop-color="#00BBD3"/>
</linearGradient>
<linearGradient id="paint3_linear_4083_8864" x1="133.5" y1="0" x2="133.5" y2="268" gradientUnits="userSpaceOnUse">
<stop stop-color="#83D4ED"/>
<stop offset="1" stop-color="#00BBD3"/>
</linearGradient>
<linearGradient id="paint4_linear_4083_8864" x1="133.5" y1="0" x2="133.5" y2="268" gradientUnits="userSpaceOnUse">
<stop stop-color="#83D4ED"/>
<stop offset="1" stop-color="#00BBD3"/>
</linearGradient>
<linearGradient id="paint5_linear_4083_8864" x1="133.5" y1="0" x2="133.5" y2="268" gradientUnits="userSpaceOnUse">
<stop stop-color="#83D4ED"/>
<stop offset="1" stop-color="#00BBD3"/>
</linearGradient>
<linearGradient id="paint6_linear_4083_8864" x1="133.5" y1="0" x2="133.5" y2="268" gradientUnits="userSpaceOnUse">
<stop stop-color="#83D4ED"/>
<stop offset="1" stop-color="#00BBD3"/>
</linearGradient>
<linearGradient id="paint7_linear_4083_8864" x1="133.5" y1="0" x2="133.5" y2="268" gradientUnits="userSpaceOnUse">
<stop stop-color="#83D4ED"/>
<stop offset="1" stop-color="#00BBD3"/>
</linearGradient>
</defs>
</svg>
